<svg xmlns="http://www.w3.org/2000/svg" viewBox="0 0 64 64" width="512" height="512"><title>LealTab isotipo r3 D · marketing, sombra dura noche sobre durazno</title><rect width="64" height="64" fill="#FF9F6E"/><defs><clipPath id="c"><path d="M7 12.75A6.5 6.5 0 0 1 20 12.75L20 43A2 2 0 0 0 22 45L32 45A6 6 0 0 1 32 57L14 57A7 7 0 0 1 7 50ZM57 43.5A6.5 6.5 0 0 1 44 43.5L44 21A2 2 0 0 0 42 19L32 19A6 6 0 0 1 32 7L50 7A7 7 0 0 1 57 14Z"/></clipPath></defs><path fill="#0F2A22" transform="translate(3.2 3.2)" d="M7 12.75A6.5 6.5 0 0 1 20 12.75L20 43A2 2 0 0 0 22 45L32 45A6 6 0 0 1 32 57L14 57A7 7 0 0 1 7 50ZM57 43.5A6.5 6.5 0 0 1 44 43.5L44 21A2 2 0 0 0 42 19L32 19A6 6 0 0 1 32 7L50 7A7 7 0 0 1 57 14Z"/><path fill="#F3EFE6" d="M7 12.75A6.5 6.5 0 0 1 20 12.75L20 43A2 2 0 0 0 22 45L32 45A6 6 0 0 1 32 57L14 57A7 7 0 0 1 7 50ZM57 43.5A6.5 6.5 0 0 1 44 43.5L44 21A2 2 0 0 0 42 19L32 19A6 6 0 0 1 32 7L50 7A7 7 0 0 1 57 14Z"/><path fill="none" stroke="#0F2A22" stroke-width="5.2" clip-path="url(#c)" d="M7 12.75A6.5 6.5 0 0 1 20 12.75L20 43A2 2 0 0 0 22 45L32 45A6 6 0 0 1 32 57L14 57A7 7 0 0 1 7 50ZM57 43.5A6.5 6.5 0 0 1 44 43.5L44 21A2 2 0 0 0 42 19L32 19A6 6 0 0 1 32 7L50 7A7 7 0 0 1 57 14Z"/></svg>
